#!OML:ASF H:\Male1\Project 1\Capture day 1\Session 1\Male1.ASF
:FULLY-SPECIFIED
:DEGREES
245
root 8.04185 12.1079 5.50441 187.579 -1.43016 -179.683
lowerback 32.7255 1.17195 0.544659
upperback 7.27188 -0.426487 0.197149
thorax -8.78403 -1.07801 0.20568
lowerneck -4.68907 7.07383 11.3697
upperneck -14.8571 6.78296 -14.9336
head -2.57086 2.76955 -6.47436
rclavicle 3.08116e-015 -2.6339e-015
rhumerus -6.90789 -10.437 -53.2547
rradius 135.111
rwrist -17.266
rhand -42.6215 39.4753
rfingers 7.12502
rthumb -15.4939 10.0762
lclavicle 3.08116e-015 -2.6339e-015
lhumerus -1.71314 8.28888 52.32
lradius 124.899
lwrist 2.43545
lhand -41.7036 -29.4579
lfingers 7.12502
lthumb -14.6096 0.00752585
rfemur -60.4427 5.58922 16.9987
rtibia 91.5559
rfoot -35.2289 -35.619
rtoes -20.0591
lfemur -62.7286 -14.2418 -12.7727
ltibia 89.9262
lfoot -31.0827 24.4528
ltoes -22.4128
246
root 8.03209 12.0225 5.5205 187.807 -1.68984 -179.597
lowerback 33.0647 1.1201 0.793319
upperback 7.20602 -0.387199 0.400874
thorax -8.98489 -1.06506 0.278896
lowerneck -4.55932 7.04403 11.2751
upperneck -15.0796 6.724 -14.9028
head -2.67006 2.74079 -6.46164
rclavicle -6.10642e-015 1.67725e-015
rhumerus -6.99852 -10.9932 -52.8438
rradius 135.391
rwrist -17.3108
rhand -42.6909 39.6298
rfingers 7.12502
rthumb -15.5607 10.2359
lclavicle -6.10642e-015 1.67725e-015
lhumerus -1.10597 8.27371 52.1851
lradius 124.704
lwrist 2.46352
lhand -41.4968 -29.4053
lfingers 7.12502
lthumb -14.4104 0.0744691
rfemur -61.4251 5.25673 17.077
rtibia 92.5846
rfoot -35.221 -35.8828
rtoes -20.4768
lfemur -63.8771 -14.7745 -12.5038
ltibia 91.0225
lfoot -31.2579 24.7559
ltoes -22.1498
247
root 8.01729 11.9368 5.5375 188.035 -1.51295 -179.667
lowerback 33.4067 1.18656 0.922052
upperback 7.14337 -0.264292 0.387439
thorax -9.18429 -1.01274 0.156319
lowerneck -4.4261 7.04046 11.1894
upperneck -15.3624 6.69285 -14.8629
head -2.78415 2.72299 -6.44882
rclavicle 2.18663e-015 -2.11209e-015
rhumerus -7.05503 -11.438 -52.7041
rradius 135.659
rwrist -17.31
rhand -42.7686 39.8163
rfingers 7.12502
rthumb -15.6355 10.4282
lclavicle 2.18663e-015 -2.11209e-015
lhumerus -0.668513 8.41227 51.9185
lradius 124.666
lwrist 2.47396
lhand -41.3314 -29.2162
lfingers 7.12502
lthumb -14.251 0.274869
rfemur -62.5124 5.2178 16.9551
rtibia 93.6115
rfoot -35.0026 -36.2364
rtoes -21.2858
lfemur -64.8729 -14.9807 -12.4736
ltibia 92.0829
lfoot -31.4506 25.1381
ltoes -21.9835
248
root 7.99947 11.8513 5.55448 188.254 -0.95483 -179.829
lowerback 33.7412 1.34099 0.96434
upperback 7.09936 -0.0886013 0.184305
thorax -9.35985 -0.937472 -0.141405
lowerneck -4.27713 7.06848 11.1341
upperneck -15.7305 6.69011 -14.8463
head -2.91978 2.71537 -6.45113
rclavicle 1.73937e-016 1.31695e-015
rhumerus -7.04845 -11.7153 -52.8478
rradius 135.884
rwrist -17.2652
rhand -42.8429 40.0308
rfingers 7.12502
rthumb -15.7071 10.6483
lclavicle 1.73937e-016 1.31695e-015
lhumerus -0.44624 8.74579 51.5493
lradius 124.819
lwrist 2.50985
lhand -41.3346 -28.9384
lfingers 7.12502
lthumb -14.2541 0.552467
rfemur -63.6695 5.47587 16.6929
rtibia 94.6258
rfoot -34.6952 -36.5755
rtoes -22.2126
lfemur -65.7205 -14.8238 -12.6194
ltibia 93.1154
lfoot -31.6835 25.4995
ltoes -21.8557
249
root 7.98033 11.7678 5.56983 188.454 -0.129167 -180.012
lowerback 34.055 1.53592 0.971639
upperback 7.07919 0.0993158 -0.156127
thorax -9.49934 -0.859678 -0.572116
lowerneck -4.08929 7.12929 11.1013
upperneck -16.195 6.71925 -14.85
head -3.08425 2.72048 -6.46764
rclavicle 2.88238e-015 -3.26752e-015
rhumerus -6.9678 -11.7938 -53.2412
rradius 136.029
rwrist -17.1627
rhand -42.899 40.2721
rfingers 7.12502
rthumb -15.761 10.8938
lclavicle 2.88238e-015 -3.26752e-015
lhumerus -0.485323 9.30018 51.1506
lradius 125.17
lwrist 2.68172
lhand -41.5441 -28.7543
lfingers 7.12502
lthumb -14.4559 0.722173
rfemur -64.8389 5.9705 16.3573
rtibia 95.6038
rfoot -34.4194 -36.8068
rtoes -23.0436
lfemur -66.4346 -14.3474 -12.8593
ltibia 94.1162
lfoot -31.9717 25.7649
ltoes -21.7217
250
root 7.96175 11.6881 5.58219 188.643 0.81043 -180.17
lowerback 34.3029 -0.688941 -0.684333
upperback 7.04165 1.00375 -0.821824
thorax -9.63496 1.38273 -1.04175
lowerneck -3.83856 7.22797 11.088
upperneck -16.7433 6.79221 -14.8841
head -3.27591 2.74644 -6.50175
rclavicle -3.35449e-016 8.94531e-016
rhumerus -6.81118 -11.6497 -53.8013
rradius 136.059
rwrist -16.9712
rhand -42.9191 40.5077
rfingers 7.12502
rthumb -15.7804 11.131
lclavicle -3.35449e-016 8.94531e-016
lhumerus -0.851127 10.0575 50.8183
lradius 125.715
lwrist 3.02302
lhand -41.8942 -28.7683
lfingers 7.12502
lthumb -14.7933 0.683757
rfemur -65.9708 6.59316 16.0034
rtibia 96.5162
rfoot -34.2566 -36.8851
rtoes -23.6627
lfemur -67.0572 -13.6591 -13.1133
ltibia 95.0725
lfoot -32.2999 25.9025
ltoes -21.5902
